<svg width="20" height="20" viewBox="0 0 20 20" fill="none" xmlns="http://www.w3.org/2000/svg">
<path d="M16 4.66665V13.333C16 13.5099 15.9298 13.6794 15.8047 13.8044C15.6797 13.9295 15.5102 13.9997 15.3334 13.9997C15.1565 13.9997 14.987 13.9295 14.862 13.8044C14.7369 13.6794 14.6667 13.5099 14.6667 13.333V6.27576L5.13867 15.8046C5.01358 15.9297 4.84392 16 4.66702 16C4.49011 16 4.32045 15.9297 4.19536 15.8046C4.07027 15.6795 4 15.5099 4 15.333C4 15.1561 4.07027 14.9864 4.19536 14.8613L13.7242 5.33329H6.66695C6.49015 5.33329 6.32059 5.26306 6.19556 5.13804C6.07054 5.01302 6.00031 4.84345 6.00031 4.66665C6.00031 4.48984 6.07054 4.32028 6.19556 4.19526C6.32059 4.07024 6.49015 4 6.66695 4H15.3334C15.5102 4 15.6797 4.07024 15.8047 4.19526C15.9298 4.32028 16 4.48984 16 4.66665Z"/>
</svg>
