<svg width="20" height="20" viewBox="0 0 20 20" fill="none" xmlns="http://www.w3.org/2000/svg">
<path fill-rule="evenodd" clip-rule="evenodd" d="M14.168 1.66634C14.168 1.2061 13.7949 0.833008 13.3346 0.833008C12.8744 0.833008 12.5013 1.2061 12.5013 1.66634V2.49967H7.5013V1.66634C7.5013 1.2061 7.12821 0.833008 6.66797 0.833008C6.20773 0.833008 5.83464 1.2061 5.83464 1.66634V2.50103C5.43842 2.50375 5.09212 2.51194 4.79145 2.5365C4.32303 2.57477 3.89245 2.65691 3.488 2.86299C2.86079 3.18256 2.35086 3.6925 2.03128 4.31971C1.82521 4.72415 1.74307 5.15474 1.7048 5.62315C1.66795 6.07414 1.66796 6.62778 1.66797 7.29858V14.3674C1.66796 15.0382 1.66795 15.5919 1.7048 16.0429C1.74307 16.5113 1.82521 16.9419 2.03128 17.3463C2.35086 17.9735 2.86079 18.4835 3.488 18.803C3.89245 19.0091 4.32303 19.0912 4.79145 19.1295C5.24244 19.1664 5.79607 19.1664 6.46687 19.1663H13.5357C14.2065 19.1664 14.7602 19.1664 15.2112 19.1295C15.6796 19.0912 16.1102 19.0091 16.5146 18.803C17.1418 18.4835 17.6517 17.9735 17.9713 17.3463C18.1774 16.9419 18.2595 16.5113 18.2978 16.0429C18.3347 15.5919 18.3346 15.0382 18.3346 14.3674V7.29857C18.3346 6.62777 18.3347 6.07415 18.2978 5.62315C18.2595 5.15474 18.1774 4.72415 17.9713 4.31971C17.6517 3.6925 17.1418 3.18256 16.5146 2.86299C16.1102 2.65691 15.6796 2.57477 15.2112 2.5365C14.9105 2.51194 14.5642 2.50375 14.168 2.50103V1.66634ZM5.83464 4.99967V4.16781C5.46336 4.17042 5.17183 4.17765 4.92717 4.19763C4.56182 4.22748 4.37499 4.28159 4.24465 4.348C3.93105 4.50779 3.67608 4.76275 3.51629 5.07636C3.44988 5.20669 3.39578 5.39353 3.36593 5.75887C3.33529 6.13395 3.33464 6.61919 3.33464 7.33301V7.49967H16.668V7.33301C16.668 6.61919 16.6673 6.13395 16.6367 5.75887C16.6068 5.39353 16.5527 5.20669 16.4863 5.07636C16.3265 4.76275 16.0716 4.50779 15.758 4.348C15.6276 4.28159 15.4408 4.22748 15.0754 4.19763C14.8308 4.17765 14.5392 4.17042 14.168 4.16781V4.99967C14.168 5.45991 13.7949 5.83301 13.3346 5.83301C12.8744 5.83301 12.5013 5.45991 12.5013 4.99967V4.16634H7.5013V4.99967C7.5013 5.45991 7.12821 5.83301 6.66797 5.83301C6.20773 5.83301 5.83464 5.45991 5.83464 4.99967ZM7.5013 12.4997C7.04107 12.4997 6.66797 12.8728 6.66797 13.333C6.66797 13.7932 7.04107 14.1663 7.5013 14.1663H12.5013C12.9615 14.1663 13.3346 13.7932 13.3346 13.333C13.3346 12.8728 12.9615 12.4997 12.5013 12.4997H7.5013Z"/>
</svg>
