<svg width="20" height="20" viewBox="0 0 20 20" fill="none" xmlns="http://www.w3.org/2000/svg">
<path fill-rule="evenodd" clip-rule="evenodd" d="M9.9987 0.833008C4.93609 0.833008 0.832031 4.93706 0.832031 9.99967C0.832031 15.0623 4.93609 19.1663 9.9987 19.1663C15.0613 19.1663 19.1654 15.0623 19.1654 9.99967C19.1654 4.93706 15.0613 0.833008 9.9987 0.833008ZM13.088 6.91042C13.4134 7.23586 13.4134 7.76349 13.088 8.08893L11.1772 9.99967L13.088 11.9104C13.4134 12.2359 13.4134 12.7635 13.088 13.0889C12.7625 13.4144 12.2349 13.4144 11.9094 13.0889L9.9987 11.1782L8.08795 13.0889C7.76252 13.4144 7.23488 13.4144 6.90944 13.0889C6.58401 12.7635 6.58401 12.2359 6.90944 11.9104L8.82019 9.99967L6.90944 8.08893C6.58401 7.76349 6.58401 7.23586 6.90944 6.91042C7.23488 6.58498 7.76252 6.58498 8.08795 6.91042L9.9987 8.82116L11.9094 6.91042C12.2349 6.58498 12.7625 6.58498 13.088 6.91042Z" fill="black"/>
</svg>
