<svg width="20" height="20" viewBox="0 0 20 20" fill="none" xmlns="http://www.w3.org/2000/svg">
<path fill-rule="evenodd" clip-rule="evenodd" d="M12.0839 1.07385C10.0692 0.603671 7.9546 0.82887 6.08406 1.71284C4.21352 2.5968 2.69702 4.08754 1.78115 5.94266C0.865268 7.79778 0.603879 9.90818 1.03948 11.9307C1.47508 13.9532 2.58205 15.7689 4.1804 17.0825C5.77875 18.3961 7.77447 19.1304 9.84306 19.166C11.9116 19.2015 13.9314 18.5363 15.574 17.2784C15.9394 16.9986 16.0088 16.4755 15.7289 16.1101C15.4491 15.7447 14.9261 15.6754 14.5607 15.9552C13.2167 16.9844 11.5642 17.5287 9.87171 17.4995C8.17923 17.4704 6.54637 16.8697 5.23863 15.7949C3.93089 14.7201 3.02519 13.2346 2.66879 11.5798C2.31238 9.92499 2.52625 8.19831 3.2756 6.68048C4.02496 5.16265 5.26573 3.94296 6.79617 3.21971C8.32661 2.49647 10.0567 2.31221 11.7051 2.69691C13.3536 3.08161 14.8234 4.01263 15.8756 5.33859C16.9278 6.66453 17.5005 8.30748 17.5007 10.0002V10.8335C17.5007 11.2755 17.3251 11.6994 17.0125 12.012C16.6999 12.3245 16.276 12.5001 15.834 12.5001C15.392 12.5001 14.968 12.3245 14.6555 12.012C14.3429 11.6994 14.1673 11.2755 14.1673 10.8335V6.6668C14.1673 6.20656 13.7942 5.83347 13.334 5.83347C12.8739 5.83347 12.5008 6.20641 12.5007 6.66651C11.8043 6.14343 10.9387 5.83348 10.0007 5.83348C7.69948 5.83348 5.834 7.69896 5.834 10.0001C5.834 12.3013 7.69948 14.1668 10.0007 14.1668C11.2407 14.1668 12.3543 13.6251 13.1176 12.7654C13.2246 12.9159 13.3447 13.0582 13.477 13.1905C14.1021 13.8156 14.9499 14.1668 15.834 14.1668C16.7181 14.1668 17.5659 13.8156 18.191 13.1905C18.8161 12.5654 19.1673 11.7175 19.1673 10.8335V10.0001C19.1672 7.93119 18.4672 5.92319 17.1812 4.30257C15.8951 2.68195 14.0987 1.54404 12.0839 1.07385ZM12.5007 9.99665V10.0036C12.4988 11.3827 11.3802 12.5001 10.0007 12.5001C8.61995 12.5001 7.50066 11.3809 7.50066 10.0001C7.50066 8.61943 8.61995 7.50014 10.0007 7.50014C11.3802 7.50014 12.4988 8.61754 12.5007 9.99665Z"/>
</svg>
