<svg width="20" height="20" viewBox="0 0 20 20" fill="none" xmlns="http://www.w3.org/2000/svg">
<path d="M9.16797 3.00033C9.16797 2.53362 9.16797 2.30026 9.07714 2.122C8.99725 1.9652 8.86976 1.83772 8.71296 1.75782C8.5347 1.66699 8.30135 1.66699 7.83464 1.66699H5.13585C4.69657 1.66698 4.31758 1.66697 4.00545 1.69247C3.67599 1.71939 3.34831 1.77882 3.03299 1.93948C2.56259 2.17916 2.18014 2.56161 1.94045 3.03202C1.77979 3.34733 1.72036 3.67502 1.69345 4.00447C1.66794 4.31661 1.66796 4.69557 1.66797 5.13484V7.83366C1.66797 8.30037 1.66797 8.53373 1.7588 8.71199C1.83869 8.86879 1.96618 8.99627 2.12298 9.07616C2.30124 9.16699 2.53459 9.16699 3.0013 9.16699H7.83464C8.30135 9.16699 8.5347 9.16699 8.71296 9.07616C8.86976 8.99627 8.99725 8.86879 9.07714 8.71199C9.16797 8.53373 9.16797 8.30037 9.16797 7.83366V3.00033Z" fill="black"/>
<path d="M3.0013 10.8337C2.53459 10.8337 2.30124 10.8337 2.12298 10.9245C1.96618 11.0044 1.83869 11.1319 1.7588 11.2887C1.66797 11.4669 1.66797 11.7003 1.66797 12.167V14.8658C1.66796 15.3051 1.66794 15.684 1.69345 15.9962C1.72036 16.3256 1.77979 16.6533 1.94045 16.9686C2.18014 17.439 2.56259 17.8215 3.03299 18.0612C3.34831 18.2218 3.67599 18.2813 4.00545 18.3082C4.31759 18.3337 4.69655 18.3337 5.13583 18.3337H7.83464C8.30135 18.3337 8.5347 18.3337 8.71296 18.2428C8.86976 18.1629 8.99725 18.0355 9.07714 17.8787C9.16797 17.7004 9.16797 17.467 9.16797 17.0003V12.167C9.16797 11.7003 9.16797 11.4669 9.07714 11.2887C8.99725 11.1319 8.86976 11.0044 8.71296 10.9245C8.5347 10.8337 8.30135 10.8337 7.83464 10.8337H3.0013Z" fill="black"/>
<path d="M10.8346 17.0003C10.8346 17.467 10.8346 17.7004 10.9255 17.8787C11.0054 18.0355 11.1328 18.1629 11.2896 18.2428C11.4679 18.3337 11.7013 18.3337 12.168 18.3337H14.8668C15.3061 18.3337 15.685 18.3337 15.9972 18.3082C16.3266 18.2813 16.6543 18.2218 16.9696 18.0612C17.44 17.8215 17.8225 17.439 18.0622 16.9686C18.2228 16.6533 18.2822 16.3256 18.3092 15.9962C18.3347 15.684 18.3347 15.3051 18.3346 14.8658V12.167C18.3346 11.7003 18.3346 11.4669 18.2438 11.2887C18.1639 11.1319 18.0364 11.0044 17.8796 10.9245C17.7014 10.8337 17.468 10.8337 17.0013 10.8337H12.168C11.7013 10.8337 11.4679 10.8337 11.2896 10.9245C11.1328 11.0044 11.0054 11.1319 10.9255 11.2887C10.8346 11.4669 10.8346 11.7003 10.8346 12.167V17.0003Z" fill="black"/>
<path d="M18.3346 7.83366C18.3346 8.30037 18.3346 8.53373 18.2438 8.71199C18.1639 8.86879 18.0364 8.99627 17.8796 9.07616C17.7014 9.16699 17.468 9.16699 17.0013 9.16699H12.168C11.7013 9.16699 11.4679 9.16699 11.2896 9.07616C11.1328 8.99627 11.0054 8.86879 10.9255 8.71199C10.8346 8.53373 10.8346 8.30037 10.8346 7.83366V3.00033C10.8346 2.53362 10.8346 2.30026 10.9255 2.122C11.0054 1.9652 11.1328 1.83772 11.2896 1.75782C11.4679 1.66699 11.7013 1.66699 12.168 1.66699H14.8668C15.306 1.66698 15.685 1.66697 15.9972 1.69247C16.3266 1.71939 16.6543 1.77882 16.9696 1.93948C17.44 2.17916 17.8225 2.56161 18.0622 3.03202C18.2228 3.34733 18.2822 3.67502 18.3092 4.00447C18.3347 4.31661 18.3347 4.69557 18.3346 5.13486V7.83366Z" fill="black"/>
</svg>
