<svg width="20" height="20" viewBox="0 0 20 20" fill="none" xmlns="http://www.w3.org/2000/svg">
<path fill-rule="evenodd" clip-rule="evenodd" d="M8.73864 2.63745C8.8143 2.18348 8.50762 1.75412 8.05364 1.67846C7.59967 1.6028 7.17031 1.90948 7.09465 2.36346L6.51627 5.83376H2.91667C2.45643 5.83376 2.08333 6.20686 2.08333 6.66709C2.08333 7.12733 2.45643 7.50043 2.91667 7.50043H6.23849L5.40515 12.5004H2.08333C1.6231 12.5004 1.25 12.8735 1.25 13.3338C1.25 13.794 1.6231 14.1671 2.08333 14.1671H5.12738L4.59465 17.3635C4.51899 17.8174 4.82567 18.2468 5.27964 18.3224C5.73362 18.3981 6.16298 18.0914 6.23864 17.6375L6.81703 14.1671H11.794L11.2613 17.3635C11.1857 17.8174 11.4923 18.2468 11.9463 18.3224C12.4003 18.3981 12.8296 18.0914 12.9053 17.6375L13.4837 14.1671H16.25C16.7102 14.1671 17.0833 13.794 17.0833 13.3338C17.0833 12.8735 16.7102 12.5004 16.25 12.5004H13.7615L14.5948 7.50043H17.0833C17.5436 7.50043 17.9167 7.12733 17.9167 6.66709C17.9167 6.20686 17.5436 5.83376 17.0833 5.83376H14.8726L15.4053 2.63745C15.481 2.18348 15.1743 1.75412 14.7203 1.67846C14.2663 1.6028 13.837 1.90948 13.7613 2.36346L13.1829 5.83376H8.20592L8.73864 2.63745ZM12.0718 12.5004L12.9052 7.50043H7.92814L7.09481 12.5004H12.0718Z" fill="black"/>
</svg>
