<svg width="184" height="16" viewBox="0 0 184 16" fill="none" xmlns="http://www.w3.org/2000/svg">
<path d="M171.789 13V4.59766H178.943C180.068 4.59766 180.947 4.86523 181.58 5.40039C182.213 5.93164 182.529 6.66406 182.529 7.59766C182.529 8.52344 182.209 9.25195 181.568 9.7832C180.932 10.3105 180.045 10.5742 178.908 10.5742H173.564V13H171.789ZM178.645 5.98047H173.564V9.19727H178.645C179.332 9.19727 179.85 9.06055 180.197 8.78711C180.545 8.51367 180.719 8.11719 180.719 7.59766C180.719 7.06641 180.545 6.66406 180.197 6.39062C179.85 6.11719 179.332 5.98047 178.645 5.98047Z" fill="#344054"/>
<path d="M168.881 8.82227C168.881 10.2012 168.389 11.2656 167.404 12.0156C166.424 12.7617 165.035 13.1348 163.238 13.1348C161.449 13.1348 160.066 12.7617 159.09 12.0156C158.113 11.2656 157.625 10.2012 157.625 8.82227V4.59766H159.412V8.77539C159.412 9.75977 159.734 10.502 160.379 11.002C161.023 11.502 161.977 11.752 163.238 11.752C164.512 11.752 165.475 11.502 166.127 11.002C166.779 10.502 167.105 9.75977 167.105 8.77539V4.59766H168.881V8.82227Z" fill="#344054"/>
<path d="M149.082 13.1348C147.047 13.1348 145.469 12.7559 144.348 11.998C143.23 11.2363 142.672 10.1777 142.672 8.82227C142.672 7.44727 143.229 6.37891 144.342 5.61719C145.459 4.85156 147.039 4.46875 149.082 4.46875C151.125 4.46875 152.705 4.85156 153.822 5.61719C154.939 6.37891 155.498 7.44336 155.498 8.81055C155.498 10.1738 154.939 11.2363 153.822 11.998C152.705 12.7559 151.125 13.1348 149.082 13.1348ZM145.648 11.002C146.426 11.502 147.57 11.752 149.082 11.752C150.594 11.752 151.738 11.5 152.516 10.9961C153.297 10.4883 153.688 9.75977 153.688 8.81055C153.688 7.85352 153.297 7.12109 152.516 6.61328C151.738 6.10156 150.594 5.8457 149.082 5.8457C147.57 5.8457 146.426 6.10156 145.648 6.61328C144.871 7.125 144.482 7.86133 144.482 8.82227C144.482 9.77148 144.871 10.498 145.648 11.002Z" fill="#344054"/>
<path d="M130.32 13V4.59766H137.645C138.723 4.59766 139.545 4.83398 140.111 5.30664C140.682 5.7793 140.967 6.43945 140.967 7.28711C140.967 8.09961 140.691 8.74414 140.141 9.2207C139.59 9.69336 138.805 9.94141 137.785 9.96484L141.16 13H138.805L135.576 10.0469H132.096V13H130.32ZM137.34 5.93359H132.096V8.7168H137.34C138.559 8.7168 139.168 8.25195 139.168 7.32227C139.168 6.39648 138.559 5.93359 137.34 5.93359Z" fill="#344054"/>
<path d="M114.93 8.81055C114.93 7.43945 115.494 6.37305 116.623 5.61133C117.752 4.84961 119.348 4.46875 121.41 4.46875C123.082 4.46875 124.426 4.69531 125.441 5.14844C126.457 5.59766 127.109 6.25391 127.398 7.11719L125.541 7.49219C125.334 6.95703 124.885 6.54883 124.193 6.26758C123.502 5.98633 122.574 5.8457 121.41 5.8457C119.875 5.8457 118.713 6.09961 117.924 6.60742C117.135 7.11133 116.74 7.8457 116.74 8.81055C116.74 9.77148 117.129 10.502 117.906 11.002C118.688 11.502 119.844 11.752 121.375 11.752C123.828 11.752 125.264 11.123 125.682 9.86523H121.123V8.60547H127.557V13H126.174L126.004 11.2832C125.109 12.5176 123.498 13.1348 121.17 13.1348C119.182 13.1348 117.645 12.7559 116.559 11.998C115.473 11.2402 114.93 10.1777 114.93 8.81055Z" fill="#344054"/>
<path d="M102.766 13V5.98047H97.9141V4.59766H109.398V5.98047H104.541V13H102.766Z" fill="#344054"/>
<path d="M85.2109 10.5039L87.0684 10.2168C87.2051 10.7441 87.6172 11.1426 88.3047 11.4121C88.9961 11.6777 89.9434 11.8105 91.1465 11.8105C92.5176 11.8105 93.5137 11.709 94.1348 11.5059C94.7598 11.2988 95.0723 10.9922 95.0723 10.5859C95.0723 10.2266 94.9004 9.97266 94.5566 9.82422C94.2129 9.67578 93.5723 9.57422 92.6348 9.51953L89.1309 9.34961C87.8809 9.27148 86.9609 9.04688 86.3711 8.67578C85.7812 8.30469 85.4863 7.76953 85.4863 7.07031C85.4863 6.23438 85.9453 5.5918 86.8633 5.14258C87.7812 4.69336 89.1348 4.46875 90.9238 4.46875C94.291 4.46875 96.2031 5.29688 96.6602 6.95312L94.7969 7.25195C94.6523 6.76367 94.2637 6.39844 93.6309 6.15625C93.002 5.91016 92.0957 5.78711 90.9121 5.78711C89.6543 5.78711 88.7363 5.88672 88.1582 6.08594C87.584 6.28125 87.2969 6.57031 87.2969 6.95312C87.2969 7.27734 87.4648 7.51172 87.8008 7.65625C88.1406 7.80078 88.7363 7.90234 89.5879 7.96094L93.1914 8.13086C94.4805 8.2168 95.418 8.44531 96.0039 8.81641C96.5898 9.18359 96.8828 9.72266 96.8828 10.4336C96.8828 12.2344 94.9668 13.1348 91.1348 13.1348C87.6113 13.1348 85.6367 12.2578 85.2109 10.5039Z" fill="#344054"/>
<path d="M73.4219 13V4.59766H83.5059V5.91016H75.1504V8.04297H82.7207V9.34961H75.1504V11.6934H83.5996V13H73.4219Z" fill="#344054"/>
<path d="M61.168 4.59766L65.3691 11.3301L69.6055 4.59766H71.5859L66.2539 13H64.4199L59.0938 4.59766H61.168Z" fill="#344054"/>
<path d="M45.9141 13V4.59766H47.6426L55.5762 11.1895V4.59766H57.2461V13H55.5176L47.5957 6.4375V13H45.9141Z" fill="#344054"/>
<path d="M40.8828 13V4.59766H42.6582V13H40.8828Z" fill="#344054"/>
<path d="M20.043 4.59766L24.2441 11.3301L28.4805 4.59766H30.4609L25.1289 13H23.2949L17.9688 4.59766H20.043Z" fill="#344054"/>
<path d="M18.9609 14.7988H17.1973L12.9844 4.59766H14.7363L18.9609 14.7988Z" fill="#344054"/>
<path d="M11.2402 13L9.93359 11.0312H3.35352L2.05859 13H0.078125L5.75586 4.59766H7.57812L13.291 13H11.2402ZM4.2207 9.73633H9.06641L6.63477 6.07422L4.2207 9.73633Z" fill="#344054"/>
</svg>
