<svg width="20" height="19" viewBox="0 0 20 19" fill="none" xmlns="http://www.w3.org/2000/svg">
<path d="M3.6 16C3.16 16 2.78347 15.841 2.4704 15.5231C2.15733 15.2051 2.00053 14.8224 2 14.375V4.625C2 4.17812 2.1568 3.79571 2.4704 3.47775C2.784 3.15979 3.16053 3.00054 3.6 3H16.4C16.84 3 17.2168 3.15925 17.5304 3.47775C17.844 3.79625 18.0005 4.17867 18 4.625V14.375C18 14.8219 17.8435 15.2046 17.5304 15.5231C17.2173 15.8416 16.8405 16.0005 16.4 16H3.6ZM10 10.3125L16.4 6.25V4.625L10 8.6875L3.6 4.625V6.25L10 10.3125Z" fill="black"/>
</svg>
