<svg width="16" height="16" viewBox="0 0 16 16" fill="none" xmlns="http://www.w3.org/2000/svg">
<path d="M6.74333 14.1158C7.14733 14.4309 7.56867 14.7189 8 15C8.43226 14.7226 8.85155 14.4276 9.25667 14.1158C9.932 13.5916 10.5676 13.0232 11.1587 12.4148C12.5213 11.0062 14 8.96426 14 6.6721C14 5.92723 13.8448 5.18965 13.5433 4.50148C13.2417 3.81331 12.7998 3.18802 12.2426 2.66132C11.6855 2.13462 11.0241 1.71681 10.2961 1.43176C9.56815 1.14671 8.78793 1 8 1C7.21207 1 6.43185 1.14671 5.7039 1.43176C4.97595 1.71681 4.31451 2.13462 3.75736 2.66132C3.20021 3.18802 2.75825 3.81331 2.45672 4.50148C2.15519 5.18965 2 5.92723 2 6.6721C2 8.96426 3.47867 11.0056 4.84133 12.4148C5.43241 13.0234 6.06798 13.5914 6.74333 14.1158ZM8 8.72036C7.42536 8.72036 6.87426 8.50456 6.46794 8.12044C6.06161 7.73631 5.83333 7.21533 5.83333 6.6721C5.83333 6.12887 6.06161 5.60788 6.46794 5.22376C6.87426 4.83964 7.42536 4.62384 8 4.62384C8.57464 4.62384 9.12574 4.83964 9.53206 5.22376C9.93839 5.60788 10.1667 6.12887 10.1667 6.6721C10.1667 7.21533 9.93839 7.73631 9.53206 8.12044C9.12574 8.50456 8.57464 8.72036 8 8.72036Z" fill="white"/>
</svg>
