<svg width="20" height="20" viewBox="0 0 20 20" fill="none" xmlns="http://www.w3.org/2000/svg">
<path d="M4.78966 1.70382C4.92691 1.69261 4.99553 1.687 5.0764 1.69619C5.3042 1.72209 5.54086 1.86466 5.67024 2.05393C5.71617 2.12112 5.74849 2.19653 5.81312 2.34735L8.93644 9.63509L2.65472 13.1009C2.32936 13.2804 2.16668 13.3701 2.03358 13.3543C1.91745 13.3405 1.81245 13.2785 1.74426 13.1835C1.6661 13.0746 1.66609 12.8888 1.66606 12.5173C1.66591 10.5001 1.66618 8.48302 1.66618 6.4659C1.66617 5.7951 1.66616 5.24146 1.70301 4.79047C1.74128 4.32206 1.82342 3.89147 2.0295 3.48703C2.34907 2.85982 2.85901 2.34988 3.48622 2.03031C3.89066 1.82423 4.32125 1.74209 4.78966 1.70382Z" fill="black"/>
<path d="M2.53487 15.0705C2.25503 15.2249 2.11511 15.3021 2.00528 15.4555C1.92721 15.5646 1.85355 15.7836 1.84987 15.9177C1.84468 16.1063 1.88679 16.2011 1.97102 16.3908C1.98931 16.432 2.00878 16.473 2.0295 16.5136C2.34907 17.1408 2.85901 17.6508 3.48622 17.9703C3.89066 18.1764 4.32125 18.2586 4.78966 18.2968C5.24065 18.3337 5.79428 18.3337 6.46508 18.3337H11.6534C11.9909 18.3337 12.1597 18.3337 12.2653 18.2626C12.3575 18.2005 12.4211 18.104 12.4418 17.9948C12.4656 17.8698 12.3991 17.7147 12.2661 17.4044L9.59622 11.1746L2.53487 15.0705Z" fill="black"/>
<path d="M15.2094 18.2968C15.0723 18.308 15.0038 18.3136 14.923 18.3045C14.6951 18.2786 14.4583 18.136 14.3289 17.9466C14.283 17.8794 14.2507 17.8041 14.1862 17.6535L7.73308 2.59627C7.60011 2.28599 7.53362 2.13085 7.55737 2.00586C7.57814 1.89661 7.64172 1.80019 7.73396 1.73806C7.83949 1.66699 8.00827 1.66699 8.34585 1.66699H13.5339C14.2047 1.66698 14.7584 1.66697 15.2094 1.70382C15.6778 1.74209 16.1084 1.82423 16.5128 2.03031C17.14 2.34988 17.65 2.85982 17.9695 3.48703C18.1756 3.89147 18.2578 4.32206 18.296 4.79047C18.3329 5.24146 18.3329 5.79509 18.3328 6.46589V13.5348C18.3329 14.2056 18.3329 14.7592 18.296 15.2102C18.2578 15.6786 18.1756 16.1092 17.9695 16.5136C17.65 17.1408 17.14 17.6508 16.5128 17.9703C16.1084 18.1764 15.6778 18.2586 15.2094 18.2968Z" fill="black"/>
</svg>
