<svg width="20" height="20" viewBox="0 0 20 20" fill="none" xmlns="http://www.w3.org/2000/svg">
<path fill-rule="evenodd" clip-rule="evenodd" d="M7.9681 2.69075C7.97695 2.69665 7.98584 2.70257 7.99475 2.70851L15.81 7.91481C16.0361 8.06542 16.2458 8.20507 16.4068 8.33484C16.5748 8.47027 16.773 8.65807 16.887 8.93281C17.0377 9.29594 17.0377 9.70406 16.887 10.0672C16.773 10.3419 16.5748 10.5297 16.4068 10.6652C16.2458 10.7949 16.0361 10.9346 15.81 11.0852L7.96812 16.3092C7.69172 16.4934 7.44317 16.659 7.23227 16.7732C7.02122 16.8875 6.73154 17.0181 6.39342 16.9979C5.96094 16.9721 5.56142 16.7585 5.30004 16.4132C5.09569 16.1433 5.04375 15.83 5.02185 15.5911C4.99996 15.3524 4.99998 15.0539 5 14.7219L5 4.31007C5 4.29937 5 4.28869 5 4.27806C4.99998 3.9461 4.99996 3.6476 5.02185 3.40891C5.04375 3.17004 5.09569 2.85674 5.30004 2.58681C5.56142 2.24154 5.96094 2.02788 6.39342 2.00208C6.73154 1.9819 7.02122 2.1125 7.23227 2.2268C7.44316 2.341 7.6917 2.5066 7.9681 2.69075Z" fill="black"/>
</svg>
