<svg width="20" height="20" viewBox="0 0 20 20" fill="none" xmlns="http://www.w3.org/2000/svg">
<path d="M17.9965 1.21491C17.6666 1.10473 17.3596 1.18441 17.2069 1.22875C17.0406 1.27708 16.8423 1.35449 16.6434 1.43216L2.51248 6.94666C2.29012 7.0334 2.07475 7.11741 1.90851 7.19961C1.76488 7.27063 1.4596 7.4287 1.2892 7.75671C1.10128 8.11842 1.10153 8.54905 1.28988 8.91055C1.46067 9.23835 1.76613 9.39606 1.90985 9.46691C2.07617 9.54891 2.2916 9.63266 2.51406 9.71914L8.10681 11.8941L10.2817 17.4868C10.3682 17.7092 10.452 17.9247 10.534 18.091C10.6048 18.2348 10.7625 18.5402 11.0903 18.711C11.4518 18.8994 11.8825 18.8996 12.2442 18.7117C12.5722 18.5413 12.7303 18.236 12.8013 18.0924C12.8835 17.9262 12.9675 17.7108 13.0542 17.4885L18.5687 3.3575C18.6464 3.15858 18.7238 2.96031 18.7721 2.79395C18.8165 2.64129 18.8962 2.33424 18.786 2.00444C18.6615 1.63181 18.3691 1.33939 17.9965 1.21491Z" fill="black"/>
</svg>
