<svg width="20" height="20" viewBox="0 0 20 20" fill="none" xmlns="http://www.w3.org/2000/svg">
<path d="M17.6136 10.0415C17.8278 9.85495 17.9349 9.76168 17.9742 9.65069C18.0086 9.55328 18.0086 9.44672 17.9742 9.34931C17.9349 9.23832 17.8278 9.14504 17.6136 8.9585L10.1797 2.48574C9.81092 2.16463 9.62653 2.00407 9.47041 2.00014C9.33474 1.99672 9.20514 2.05727 9.1194 2.16414C9.02074 2.28711 9.02074 2.53382 9.02074 3.02723V6.85641C7.14736 7.18934 5.43278 8.15363 4.15862 9.60151C2.76949 11.18 2.00108 13.2228 2 15.3401V15.8857C2.92089 14.7588 4.07068 13.8474 5.37062 13.2139C6.5167 12.6554 7.75561 12.3245 9.02074 12.2373V15.9728C9.02074 16.4662 9.02074 16.7129 9.1194 16.8359C9.20514 16.9427 9.33474 17.0033 9.47041 16.9999C9.62653 16.9959 9.81092 16.8354 10.1797 16.5143L17.6136 10.0415Z" stroke="black" stroke-width="2" stroke-linecap="round" stroke-linejoin="round"/>
</svg>
