<svg width="20" height="20" viewBox="0 0 20 20" fill="none" xmlns="http://www.w3.org/2000/svg">
<path d="M2.98093 9.09703C2.98093 9.09703 10.0574 6.02377 12.5116 4.9416C13.4524 4.50877 16.6429 3.12358 16.6429 3.12358C16.6429 3.12358 18.1155 2.51762 17.9927 3.98931C17.9518 4.59533 17.6246 6.7163 17.2974 9.01047C16.8065 12.2569 16.2747 15.8063 16.2747 15.8063C16.2747 15.8063 16.1929 16.8019 15.4976 16.9751C14.8022 17.1482 13.6569 16.3691 13.4524 16.1959C13.2887 16.0661 10.3846 14.1182 9.32106 13.1659C9.03472 12.9062 8.70751 12.3868 9.36194 11.7808C10.8345 10.3523 12.5934 8.57763 13.6569 7.45221C14.1477 6.93275 14.6386 5.72076 12.5934 7.19245C9.68921 9.31348 6.82592 11.3046 6.82592 11.3046C6.82592 11.3046 6.17144 11.7375 4.94433 11.3479C3.71716 10.9584 2.28552 10.4389 2.28552 10.4389C2.28552 10.4389 1.30388 9.78963 2.98093 9.09703Z" fill="black"/>
</svg>
