<svg width="20" height="20" viewBox="0 0 20 20" fill="none" xmlns="http://www.w3.org/2000/svg">
<path d="M10.5019 3C11.6556 3.0004 12.7937 3.26691 13.8276 3.77881C14.8615 4.2907 15.7634 5.03418 16.4631 5.95141C17.1628 6.86864 17.6415 7.93491 17.8619 9.06727C18.0823 10.1996 18.0384 11.3676 17.7338 12.4802C17.4292 13.5929 16.872 14.6203 16.1055 15.4826C15.3391 16.3448 14.384 17.0186 13.3146 17.4516C12.2453 17.8846 11.0904 18.0651 9.93992 17.9791C8.78942 17.8931 7.67426 17.5428 6.6812 16.9556L3.61809 17.9756C3.53557 18.003 3.44706 18.0069 3.36245 17.9868C3.27784 17.9668 3.20048 17.9236 3.139 17.8622C3.07752 17.8007 3.03435 17.7233 3.01431 17.6387C2.99427 17.5541 2.99816 17.4656 3.02554 17.3831L4.04657 14.3212C3.37212 13.1823 3.01113 11.8852 3.00025 10.5616C2.98938 9.23803 3.32901 7.93516 3.98466 6.78529C4.6403 5.63543 5.5886 4.67954 6.73326 4.01471C7.87791 3.34989 9.17813 2.9998 10.5019 3ZM7.88975 6.75375C7.79436 6.75696 7.70081 6.78093 7.61564 6.824C7.53046 6.86707 7.45571 6.9282 7.39658 7.00312C7.22782 7.20094 6.75152 7.68281 6.75152 8.65969C6.75152 9.63844 7.41252 10.5853 7.50534 10.7184C7.59723 10.8478 8.80672 12.8559 10.6585 13.7184C11.0022 13.8778 11.3523 14.0172 11.7086 14.1366C12.1511 14.2866 12.5543 14.2669 12.873 14.2162C13.2284 14.16 13.9644 13.7353 14.1191 13.2694C14.2719 12.8072 14.2719 12.4087 14.2251 12.3253C14.1791 12.2428 14.0563 12.1922 13.8706 12.0909C13.6869 11.9925 12.7784 11.5116 12.6096 11.4469C12.4408 11.3784 12.3171 11.3475 12.1942 11.5453C12.0705 11.745 11.7189 12.1931 11.6101 12.3253C11.5042 12.4556 11.3945 12.4744 11.2116 12.375C11.026 12.2766 10.4325 12.0656 9.72649 11.3869C9.178 10.8609 8.80765 10.2075 8.70077 10.0097C8.59201 9.81 8.68858 9.70406 8.78047 9.60375C8.86485 9.51562 8.96611 9.37312 9.05799 9.25594C9.14894 9.14156 9.18175 9.05906 9.24363 8.925C9.30364 8.79281 9.2727 8.67562 9.22676 8.57719C9.18082 8.47875 8.81141 7.49719 8.65764 7.09875C8.50763 6.71156 8.3548 6.76594 8.24229 6.75844C8.1354 6.75375 8.01258 6.75375 7.88975 6.75375Z" fill="black"/>
</svg>
